<?xml version="1.0" encoding="UTF-8"?>
<svg id="Layer_2" data-name="Layer 2" xmlns="http://www.w3.org/2000/svg" viewBox="0 0 283.62 145.28">
  <defs>
    <style>
      .cls-1 {
        fill: #3f8bff;
      }
    </style>
  </defs>
  <g id="Layer_2-2" data-name="Layer 2">
    <path class="cls-1" d="M0,0l9.44,2.49s31.23-.71,41.44,1.04c4.46.76,12.78,4.63,17.2,5.59,5.28,1.15,16.22.6,21.55,1.45,4.55.72,13.1,4.49,17.61,5.39,5.24,1.04,16.04.35,21.34,1.04,3.73.48,11.01,2.44,14.71,3.11,3.04.55,9.24,1.05,12.23,1.86,6.89,1.87,20.06,9.53,27.11,10.66,7,1.13,11.41-.16,13.71-.09,3.38.1,4.98,1.92,13.84,1.69,3.21-.08,9.04-1.03,12.06-1.28,5.37-.44,18.67-1.49,21.55-.62,3.04.91,7.25,4.2,11.6,5.18,2.59.58,7.98.43,10.57,1.04,1.92.45,5.37,2.52,7.25,3.11s5.88.74,7.41,1.9c1.22.92,3.28,3.86,2.95,5.36-.42,1.9-3.81,4.61-5.59,5.39-1.9.83-6.01,1.69-8.08,1.86-2.58.22-7.85.63-10.36,0-1.69-.42-6.22-3.11-6.22-3.11,0,0-3.42.67-4.58.74-2.48.16-7.5.21-9.92-.33-2.16-.48-6.08-1.28-6.08-1.28,0,0-7.55,1.97-10.09,2.53-1.96.42-5.89,1.17-7.87,1.45-1.81.26-7.25.83-7.25.83,0,0-3.06,3.94-4.35,4.97s-5.8,3.11-5.8,3.11c0,0,3.47,3.25,4.35,4.56.77,1.13,1.98,4.53,2.87,5.57,1.91,2.21,6.88,4.04,9.56,5.21s9.3,2.86,10.85,5.28c1.12,1.75.42,5.9-.49,7.56-.74,1.35-2.93,3.62-4.14,4.56-.88.68-3.94,2.07-3.94,2.07,0,0-.05,5.21.19,6.86.28,1.93,1.67,5.12,2.09,7.02s.67,5.76.41,7.67c-.22,1.62-1.75,4.61-2.07,6.22-.7,3.51.58,11.1-1.04,14.3-.56,1.12-2.73,2.78-3.94,3.11-1,.27-3.15.3-4.14,0-1.36-.41-4.77-3.11-4.77-3.11,0,0-2.75,2.7-3.94,3.11-.93.32-3,.3-3.94,0-1.34-.44-3.78-2.14-4.56-3.32-2.2-3.35-2.78-15.55-2.78-15.55,0,0-3.37-3.71-4.14-5.18-1.21-2.31-2.99-10.01-2.99-10.01,0,0-5.22-3.47-6.68-4.95-1.87-1.9-5.26-7.22-6.22-7.6-.51-.2-1.53.5-1.53.5,0,0-.26,4.35.11,5.74.8,3.01,5.22,6.53,5.99,10.93.67,3.83.67,11.66.41,15.54s-1.57,6.69-3.11,8.29c-.8.83-2.59,2.52-3.73,2.69-1.54.23-4.74-.75-6.01-1.66s-3-3.71-3.52-5.18c-.59-1.67-.27-4.8.01-6.36.12-.67.51-2.15.23-2.71s-.93-2.06-1.17-3.15c-.32-1.42.23-4.71-.33-6.04s-3.41-3.25-4.13-4.53c-.67-1.2-1.04-5.39-1.04-5.39,0,0-14.09,1.31-18.44-.21-1.36-.47-3.32-1.69-4.55-2.44-3.46-2.09-11.9-4.13-15.34-6.26-2.24-1.39-5.26-6.01-7.46-7.46-1.86-1.23-5.17-1.4-7.02-2.66-1.18-.8-4.02-4.01-5.21-4.8-1.11-.73-3.53-1.9-4.49-2.81s-2.55-3.82-2.55-3.82c0,0-11.11-.73-14.71,0-5.71,1.16-20.45,5.7-27.35,7.25-5.81,1.31-17.51,3.59-23.41,4.35-4.87.63-19.59,1.45-19.59,1.45V0"/>
  </g>
</svg>