<?xml version="1.0" encoding="UTF-8"?>
<svg id="Layer_2" data-name="Layer 2" xmlns="http://www.w3.org/2000/svg" viewBox="0 0 282.34 143.22">
  <defs>
    <style>
      .cls-1 {
        fill: #3f8bff;
      }
    </style>
  </defs>
  <g id="Layer_1-2" data-name="Layer 1">
    <g id="Layer_2-2" data-name="Layer 2-2">
      <path class="cls-1" d="M0,3.48s6.72.56,9.13.93c9.46,1.45,27.29-.66,38.55.54,4.46.76,16,3.21,20.42,4.17,5.28,1.15,17.08,2.14,22.41,2.99,4.55.72,12.24,2.95,16.75,3.85,5.24,1.04,16.04.35,21.34,1.04,3.73.48,11.01,2.44,14.71,3.11,3.04.55,7.04.95,12.23,1.86,6.89,1.87,20.06,9.53,27.11,10.66,7,1.13,7.27-.36,13.71-.09,4.23-.11,4.98,1.92,13.84,1.69,3.21-.08,8.55-1.63,11.57-1.88,5.37-.44,18.38-.4,21.26.47,3.04.91,8.04,3.71,12.39,4.69,2.59.58,7.98.43,10.57,1.04,1.92.45,5.37,2.52,7.25,3.11s5.88.74,7.41,1.9c1.22.92,1.95,3.33,1.62,4.83-.42,1.9-3.44,4.28-5.22,5.06-1.9.83-6.62,2.34-13.39,2.18-3.97-.09-11.52-2.67-11.52-2.67,0,0-10.89.17-13.53-.19-2.19-.3-7.17-1.11-7.17-1.11,0,0-9.83,3.2-12.37,3.76-1.96.42-12.52,1.06-12.52,1.06,0,0-2.1,3.49-3.42,4.48-1.59,1.19-5.73,4.13-5.73,4.13,0,0,3.47,3.25,4.35,4.56.77,1.13.88,2.61,1.77,3.65,2.38,2.1,8.09,5.36,10.77,6.53s7.75,3.37,8.86,5.2c1.12,1.75,2.2,6.04-2.12,10.54-1.56,1.63-4.91,2.36-4.91,2.36,0,0-.48,7.4-.24,9.05.28,1.93,1.7,4.98,2.12,6.88s.12,5.89-.14,7.8c-.22,1.62-1.17,4.17-1.49,5.78-.7,3.51.46,10.23-1.16,13.43-.56,1.12-2.94,2.36-5.39,2.36-2.89,0-7.56-2.79-7.56-2.79,0,0-2.62,2.07-4.43,2.21-3.61.29-6.78-2.05-7.56-3.23-2.2-3.35-2.89-15.02-2.89-15.02,0,0-3.76-4.45-4.53-5.92-1.21-2.31-2.45-8.48-2.45-8.48,0,0-5.17-4.34-6.84-5.58-3.82-2.85-6.6-8.1-7.03-7.85-.6.36-.56,5.63-.19,7.02.8,3.01,4.67,6.68,5.44,11.08.67,3.83.4,12.68.14,16.56s-2.68,6.61-4.43,7.98c-1.36,1.07-6.53.2-7.8-.71s-3.43-3.44-3.95-4.91c-1.16-3.8.39-7.58.67-8.61.17-.6-.72-2.29-.96-3.38-1.11-3.27-.41-5.82-.53-6.36-.32-1.41-2.15-3.11-3.16-4.53-1.06-1.49-1.11-3.86-2.13-4.95-1.35-1.44-15.17-1.65-20.89-3.37-6.36-1.91-22.22-10.19-24.42-11.64-1.86-1.23-7.33-4.71-12.23-7.46-5.88-3.29-5.8-6.37-8.23-7.85-1.48-.9-12.62.05-16.22.78-5.71,1.16-21.54,4.86-29.94,5.85-5.91.7-37.72,2.49-37.72,2.49V0"/>
    </g>
  </g>
</svg>