<?xml version="1.0" encoding="UTF-8"?>
<svg id="Layer_2" data-name="Layer 2" xmlns="http://www.w3.org/2000/svg" viewBox="0 0 257.78 127.92">
  <defs>
    <style>
      .cls-1 {
        fill: #ed1c24;
      }
    </style>
  </defs>
  <g id="Layer_1-2" data-name="Layer 1">
    <path class="cls-1" d="M.56,21.82c3.2-1.09,7.45-2.39,11.04-2.86,6.42-.88,14.53.21,20.45-2.87,4.3-2.23,16.82-9.81,19.53-10.61,2.15-.63,12.48-5.1,18.29-5.47,5.13-.33,13.47,2.84,17.19,3.14,6.83.55,12.46.9,17.87,1.72,11.18,3.09,23.83,7.96,36.62,11.31,4.82,1.26,8.86,1.34,12.95,1.92,4.87.49,18.3,1.97,23.49,3.45,10.07,2.88,11.61,12.8,19.66,19.08,2.49,1.95,7.07,1.6,10.07,2.59,5.62,2.29,12.75,5.27,18.7,8.73,2.67,1.55,4.01,1.68,5.64,3.94,3.78,4.79,6,9.95,9.64,14.78,1.68,2.02,4.18,4.91,5.85,6.93,2.07,2.47,2.47,7.57,3.8,10.6,1.31,3.5,3.99,7,6.37,10.42.5.71-1.67,2.82-3.02,3.29-2.42.77-6.3.62-8.82-.86-9.11-5.37-7.86-9.69-9.68-12.48s-5.96-5.04-8.63-7.1c-1.06-.68-1.07-.28-.92.5.9,4.58,3.98,17.16,5.21,23.42.65,3.61,2.31,14.11,3.03,18.28s-3.24,4.29-4.81,4.23c-4.51-.19-7.93-5.37-9.77-6.77-1.32-.46-.05,4.38-.23,5.34-.36,2.01-7.09.37-8.99-2.11-1.52-1.98-2.74-4.01-2.73-6.33-.14-3.43.71-8.06-1.08-10.18-2.3-2.73-4.08-5.21-5.3-8.52-.6-1.62-.78-4.29-1.81-5.7-.85-1.15-7.5-6.48-9.55-8.87-.61-.45-4.48-4.96-3.43-2.26,2.03,5.23-.37,14.05,1.53,18.75.57,1.4,3.75,4.42,4.62,10.8.33,2.4-.96,4.97-1.8,7.2-1.09,2.24-4.01,3.03-6.45,3.01-3.75-.03-7.24-3.95-8.53-3.49-1.85.77-3.12,5.65-4.99,7.03-1.7,1.03-4.32-1.18-5.56-2.49-1.3-1.77-1.5-5.02-1.51-7.47-.02-4.61,2.1-5,1.67-6.64-.13-.44-.4-.73-.74-1.08-3.42-3.07-11.32-10.63-14.64-13.15-6.63-5.02-23.42-11.09-28.59-11.54-12.18-1.06-18.89-5.98-23.69-9.69-5.56-4.29-8.91-11.68-10.38-13.91-1.23-1.92-1.35-2.13-3.05-1.15-6.42,3.74-12.08,3.64-16.45,6.35-1.94,1.2-8.81,5.04-10.46,6.68-4.55,4.63-11.6,12.12-15.18,15.32C21.58,106.13,4.08,113.77,1.4,115.19c-.35.17-.67.35-.97.43-.29.07-.3-.08-.31-.35.4-7.05-.72-88.47.38-93.42l.06-.03Z"/>
  </g>
</svg>