<svg width="275" height="100" viewBox="0 0 275 100" fill="none" xmlns="http://www.w3.org/2000/svg">
<path d="M92 0C96.4183 0 100 3.58172 100 8V45H225.501C227.817 33.5889 237.905 25 250 25C263.807 25 275 36.1929 275 50C275 63.8071 263.807 75 250 75C237.905 75 227.817 66.4111 225.501 55H100V92C100 96.4183 96.4183 100 92 100H8C3.58172 100 0 96.4183 0 92V8C0 3.58172 3.58172 0 8 0H92ZM25.5801 67.5H35.0303V45.376L67.2998 68.9004H75V31.3799H65.5498V54.3906L33.21 30.75H25.5801V67.5Z" fill="white"/>
</svg>
