<svg width="100" height="100" viewBox="0 0 100 100" fill="none" xmlns="http://www.w3.org/2000/svg">
<path d="M92 0C96.4183 0 100 3.58172 100 8V92C100 96.4183 96.4183 100 92 100H8C3.58172 100 0 96.4183 0 92V8C0 3.58172 3.58172 0 8 0H92ZM51.8398 25.8096C48.4332 25.8096 45.4229 26.3929 42.8096 27.5596C40.1963 28.6796 38.1437 30.337 36.6504 32.5303C35.2037 34.7236 34.4805 37.3368 34.4805 40.3701C34.4805 42.8901 34.9002 44.9899 35.7402 46.6699C36.5802 48.3032 37.6769 49.6798 39.0303 50.7998C40.4303 51.8731 41.9468 52.7836 43.5801 53.5303C45.2134 54.2302 46.8472 54.8599 48.4805 55.4199C50.1603 55.9799 51.677 56.5633 53.0303 57.1699C54.43 57.7765 55.5497 58.5 56.3896 59.3398C57.2296 60.1798 57.6504 61.2766 57.6504 62.6299C57.6504 64.1231 56.9969 65.2899 55.6904 66.1299C54.4304 66.9699 52.6331 67.3896 50.2998 67.3896C47.7332 67.3896 45.4697 66.8999 43.5098 65.9199C41.5966 64.8933 39.8463 63.4703 38.2598 61.6504L31.1201 68.7197C33.5466 71.4262 36.2065 73.4562 39.0996 74.8096C42.0395 76.1162 45.5398 76.7695 49.5996 76.7695C55.5263 76.7695 60.1703 75.4403 63.5303 72.7803C66.8902 70.0737 68.5702 66.3635 68.5703 61.6504C68.5703 59.0837 68.1496 56.9366 67.3096 55.21C66.4696 53.4368 65.3501 51.9901 63.9502 50.8701C62.5969 49.7035 61.1031 48.7467 59.4697 48C57.8365 47.2534 56.1799 46.6 54.5 46.04C52.8668 45.4801 51.3501 44.9203 49.9502 44.3604C48.597 43.8004 47.5001 43.147 46.6602 42.4004C45.8202 41.6071 45.4005 40.5802 45.4004 39.3203C45.4004 37.967 45.9601 36.9402 47.0801 36.2402C48.2001 35.4936 49.7166 35.1201 51.6299 35.1201C53.5432 35.1201 55.2469 35.4936 56.7402 36.2402C58.2801 36.9869 59.7968 38.13 61.29 39.6699L68.4297 32.5996C66.5631 30.4998 64.1832 28.8431 61.29 27.6299C58.4434 26.4166 55.2932 25.8096 51.8398 25.8096Z" fill="white"/>
</svg>
